<svg xmlns="http://www.w3.org/2000/svg" width="167.16" height="44" viewBox="0 0 167.16 44">
  <path id="Vector"
        d="M165.049,40.222c-.355-.043-.5-.216-.772-.747l-.613-1.167a1.512,1.512,0,0,0,.908-1.439c0-.917-.609-1.421-1.714-1.421h-1.81a.113.113,0,0,0-.112.112v.2a.115.115,0,0,0,.109.112.452.452,0,0,1,.468.506v3.327a.465.465,0,0,1-.473.516.112.112,0,0,0-.1.112v.188a.113.113,0,0,0,.112.112h1.821a.113.113,0,0,0,.112-.112v-.188a.115.115,0,0,0-.1-.112q-.409-.043-.41-.516V38.5h.024c.232,0,.248.009.328.169l.7,1.37a.969.969,0,0,0,.98.638,3.342,3.342,0,0,0,.553-.043.113.113,0,0,0,.092-.112v-.188a.113.113,0,0,0-.1-.112Zm-2.5-2.146h-.076v-1.76q0-.442.243-.442c.721,0,.83.736.83,1.174C163.542,37.769,163.245,38.077,162.545,38.077Zm.263-5.478c-3.079,0-4.844,2-4.844,5.491a6.565,6.565,0,0,0,.765,3.307.535.535,0,0,1-.672.767c-1.609-.636-2.272-2.03-2.272-4.835V22.3c0-4.889-1.924-7.542-5.721-7.542-1.716,0-3.8,1.093-6.188,3.693-.884.988-1.872.884-2.392-.364-1.143-2.131-2.6-3.329-4.733-3.329-1.819,0-4,1.249-6.241,3.746-.884.988-1.4.779-1.249-.52.053-.779.156-1.56.156-2.289,0-.52-.208-.988-.884-.988-1.56,0-6.4,2.08-9.465,2.6-.52.1-.728.207-.728.468,0,.364.156.468.623.417a26.414,26.414,0,0,1,3.381-.364c.884,0,1.663.259,1.663,3.432l-.053,16.07c0,3.813-1.252,4.976-3.746,5.239-2.323-.261-3.535-1.424-3.535-5.239V14.342c0-4.42.417-9.256.417-13.313a.828.828,0,0,0-.728-.935c-2.028.207-7.073,2.08-10.3,2.548-.573.1-.832.261-.832.52,0,.312.207.417.728.364a37.594,37.594,0,0,1,3.8-.312c.988,0,1.872.261,1.872,3.432v7.073c0,1.872-.1,2.289-.937,2.289-1.352,0-2.653-1.3-5.1-1.3-5.2,0-9.309,6.5-9.309,15.966,0,7.852,2.7,13.417,7.8,13.417,2.444,0,4.472-2.184,6.4-5.616.469-.728,1.2-.779,1.093.156-.468,2.6-1.716,5.512-.208,5.46.779,0,2.506-.516,4.628-.727,1.326-.132,3.336-.132,9.155-.1h2.965c1.872,0,3.276.156,5.148.156h.207c1.613,0,3.017-.156,4.836-.156h3.276c1.872,0,3.276.156,5.148.156h.053c1.613,0,3.017-.156,4.836-.156h3.017c1.821,0,7.917.312,8.167.312,3.079,0,4.846-2,4.846-5.478S165.883,32.6,162.8,32.6Zm-51.177-.366c0,5.721-3.015,8.216-5.2,8.216-3.588,0-4.786-4.836-4.786-11.13,0-6.813,1.821-13.158,5.462-13.158,2.807,0,4.523,4.264,4.523,10.557v5.512Zm25.8,4.472c0,4.108-.728,5.98-3.952,5.98h-.207c-3.485,0-4.266-1.975-4.266-5.98V22.663c0-3.8,3.9-4.628,5.1-4.628,2.341,0,3.329,1.352,3.329,4.266V36.707Zm13.313,0c0,4.108-.728,5.98-3.952,5.98h-.053c-3.485,0-4.264-1.975-4.264-5.98V22.091c0-3.12,3.432-4.057,4.94-4.057,2.341,0,3.329,1.352,3.329,4.266Zm12.067,5.637c-2.91,0-3.521-2.312-3.521-4.253s.611-4.277,3.521-4.277,3.521,2.325,3.521,4.277S165.718,42.342,162.808,42.342ZM88.175,31.193c-.259,0-.364.156-.417.573-.676,6.239-2.6,9-4.525,9-2.548,0-3.485-2.912-3.485-7.748V18.193a1.508,1.508,0,0,1,1.508-1.508h4.889c.623,0,.935-.261.935-.676,0-.468-.312-.728-.884-.728-.884,0-3.12.676-4.681.676-1.093,0-1.872-.52-1.872-1.613V8.311c0-.676-.053-.834-.52-.834-.362,0-.468.207-.571.826v.011C78.136,13.565,74.86,15.8,70.7,15.8c-.573,0-.781.156-.781.468s.208.417.781.417h2.5A1.508,1.508,0,0,1,74.7,18.191L74.5,32.974c-.165,6.58-2.76,8.412-3.592,8.412-.937,0-1.716-.625-1.716-2.859,0-5.1.261-10.246.261-15.343,0-5.824-3.38-8.477-8.424-8.477s-9.1,3.276-9.1,7.437c0,1.924,1.093,3.537,2.965,3.537a2.378,2.378,0,0,0,2.6-2.5c0-1.663-.779-2.6-.779-4.161,0-2.08,1.143-3.173,3.276-3.173,2.445,0,4.211,1.613,4.211,7.281v.832a3.659,3.659,0,0,1-2.133,3.224c-5.668,2.5-11.338,5.565-11.338,10.766a7.59,7.59,0,0,0,.256,1.977.119.119,0,0,1-.015.092c-.665,1.018-1.326,1.363-1.8,1.363-.935,0-1.716-.625-1.716-2.859,0-5.1.261-10.246.261-15.343,0-5.824-3.38-8.477-8.424-8.477s-9.1,3.276-9.1,7.437c0,1.924,1.093,3.537,2.965,3.537a2.378,2.378,0,0,0,2.6-2.5c0-1.663-.779-2.6-.779-4.161,0-2.08,1.143-3.173,3.276-3.173,2.445,0,4.211,1.613,4.211,7.281v.832a3.659,3.659,0,0,1-2.133,3.224c-5.668,2.5-11.338,5.565-11.338,10.766a6.605,6.605,0,0,0,1.162,3.914.4.4,0,0,1-.406.627c-1.939-.339-3.818-1.419-5.541-4.385L17.392,26.2a1.652,1.652,0,0,1,.261-2.289l3.535-3.847c2.965-3.276,5.46-3.744,8.374-3.693.417,0,.573-.156.573-.468s-.156-.417-.625-.417c-1.819,0-3.744.208-5.3.208-4.108-.053-7.228-.261-8.841-.261-.468,0-.623.105-.623.468,0,.312.156.417.573.417,6.085,0,6.241,1.716,4.108,3.952l-5.929,6.344c-.988.988-2.08,1.04-2.08-1.455V13.507c0-4.161.415-8.321.415-12.482A.872.872,0,0,0,10.892.09c-1.56,0-6.344,2.028-9.414,2.548-.52.1-.728.261-.728.52,0,.312.156.417.623.364A28.867,28.867,0,0,1,4.754,3.21c.884,0,1.663.261,1.663,3.432L6.365,37.327c0,4.472-1.716,5.3-5.148,5.3-.52,0-.727.1-.727.417,0,.364.207.469.779.469,2.133,0,4.42-.261,6.293-.261h2.861c2.131,0,3.8.156,5.877.156h.261c1.975,0,3.693-.156,5.98-.156h3.64c1.56,0,3.744.261,5.253.261h.007a3.175,3.175,0,0,1,1.118.19,6.235,6.235,0,0,0,2.205.382c3.173,0,4.525-1.611,6.605-6.136.415-.832,1.249-.779,1.04.156-.935,3.9,1.56,5.98,4.316,5.98a4.971,4.971,0,0,0,4.663-2.725.1.1,0,0,1,.183,0,5.419,5.419,0,0,0,4.932,2.724c3.173,0,4.525-1.611,6.605-6.136.417-.832,1.249-.779,1.04.156-.937,3.9,1.56,5.98,4.316,5.98,3.173,0,4.972-1.856,6.056-5.962a.488.488,0,0,1,.919-.072c.94,2.169,2.952,6.032,5.507,6.032,4.577,0,6.813-4.108,7.54-12.324,0-.417-.1-.573-.312-.573ZM16.558,42.685H16.4a4.991,4.991,0,0,1-4.992-4.992v-7.8c0-1.924,1.04-2.6,1.821-1.249l4.992,8.894c2.028,3.588,2.289,5.148-1.663,5.148Zm25.9-10.557c0,4.577-2.6,7.957-5.357,7.957-2.133,0-3.12-1.663-3.12-4,0-3.329,2.236-6.136,6.4-8.269,1.2-.52,2.08,0,2.08,1.352Zm21.74,0c0,4.577-2.6,7.957-5.357,7.957-2.133,0-3.12-1.663-3.12-4,0-3.329,2.236-6.136,6.4-8.269,1.2-.52,2.08,0,2.08,1.352Z"
        transform="translate(-0.49 -0.09)" fill="#fefadb"/>
</svg>
