<svg viewBox="0 0 3002 179" fill="none" xmlns="http://www.w3.org/2000/svg">
  <path opacity="0.2"
        d="M1 57.8828C18 50.2161 58.1 36.6834 84.5 41.8834C117.5 48.3834 143 33.3834 167 33.3834C191 33.3834 203.5 58.3834 241.5 58.3834C271.9 58.3834 322.5 32.3834 344 19.3834C351.5 19.3834 355 15.8833 361 14.8833C367 13.8833 376 10.3834 384.5 3.88336C393 -2.61667 412 2.88336 423 10.3834C434 17.8834 468.5 11.3834 487 10.3834C501.8 9.58339 528.833 16.05 540.5 19.3834C555 24.2167 585.6 33.7834 592 33.3834C600 32.8834 626.5 30.3834 640.5 33.3834C654.5 36.3834 696 26.3834 703 24.3834C710 22.3834 723.5 21.8834 728 22.3834C732.5 22.8834 749 20.8834 757.5 19.3834C766 17.8834 841 23.3834 850 26.3834C859 29.3834 867 29.8834 871.5 29.3834C876 28.8834 883.5 29.8834 893.5 33.3834C903.5 36.8834 1023.5 66.8834 1029 68.3834C1087.83 84.3834 1207.2 116.883 1214 118.883C1222.5 121.383 1247.5 128.383 1252.5 128.883C1257.5 129.383 1274.5 133.383 1279 134.883C1283.5 136.383 1290.5 140.883 1301 134.883C1311.5 128.883 1319.5 134.883 1330 137.883C1340.5 140.883 1360 152.383 1372 147.883C1384 143.383 1408.5 125.383 1422 125.383C1435.5 125.383 1456.5 127.883 1464.5 118.883C1472.5 109.883 1475.5 103.883 1496 98.8834C1516.5 93.8834 1522 90.8834 1529.5 83.8834C1537 76.8834 1551.5 73.3834 1556.5 70.8834C1561.5 68.3834 1565.5 62.8834 1571 63.3834C1576.5 63.8834 1590.5 65.3834 1594.5 58.3834C1598.5 51.3834 1606 41.8834 1614.5 39.8834C1623 37.8834 1628 33.8834 1636.5 35.3834C1645 36.8834 1649 43.8834 1658.5 41.8834C1666.5 40.1992 1676 39.8834 1680.5 39.8834C1685 39.8834 1698.57 36.6543 1705.5 37.3834C1715 38.3834 1736 42.8834 1754 55.8834C1770.91 68.0983 1777.5 75.8834 1785 76.3834C1792.5 76.8834 1808 80.3834 1812.5 83.8834C1817 87.3834 1843.5 91.3834 1848 91.8834C1852.5 92.3834 1878.5 97.3834 1896 114.383C1913.5 131.383 1932.5 138.883 1938 140.883C1943.5 142.883 1957 149.883 1967 161.383C1977 172.883 1992 181.883 2010 176.883C2028 171.883 2048 162.883 2055 158.383C2062 153.883 2070 144.383 2089.5 140.883C2109 137.383 2117 130.383 2126.5 128.383C2136 126.383 2150.5 121.383 2163 124.883C2175.5 128.383 2194.5 120.383 2203 117.383C2211.5 114.383 2232.5 104.383 2245 105.883C2257.5 107.383 2321.5 124.883 2327 124.883C2332.5 124.883 2342.5 121.883 2365.5 128.383C2388.5 134.883 2413.5 136.883 2420.5 137.383C2427.5 137.883 2447.5 141.883 2453.5 143.383C2458.3 144.583 2461.5 145.883 2462.5 146.383C2471.17 149.217 2489.7 154.983 2494.5 155.383C2500.5 155.883 2517.5 158.383 2526 155.383C2534.5 152.383 2550 137.883 2563.5 143.383C2577 148.883 2588.5 151.383 2592.5 148.883C2596.5 146.383 2618 140.883 2622.5 140.883C2635.17 132.05 2665.3 114.383 2684.5 114.383C2708.5 114.383 2705 91.8834 2730.5 91.8834C2756 91.8834 2758 116.383 2791 137.383C2824 158.383 2829 178.383 2878 146.383C2883.5 140.55 2897.5 128.183 2909.5 125.383C2924.5 121.883 2933.5 101.383 2943 95.3828C2952.5 89.3828 2962 80.3828 2971 73.3828C2978.2 67.7828 2994 60.7161 3001 57.8828"
        stroke="#41453D"/>
</svg>
