<svg width="3000" height="66" viewBox="0 0 3000 66" fill="none" xmlns="http://www.w3.org/2000/svg">
  <path
    d="M563 13.5322C559.8 13.5322 545.667 14.8655 539 15.5322C535.5 16.5319 527.4 19.2315 523 22.0318C517.5 25.5322 506 25.0318 502 23.5318C498 22.0318 494.5 21.5323 492.5 17.5322C490.5 13.5322 478 11.5322 473.5 13.5322C469 15.5322 466.5 17.5322 454 17.5322C441.5 17.5322 419.5 18.5314 411 23.5318C402.5 28.5322 378.5 30.0326 373.5 26.0322C368.5 22.0318 341.5 16.0322 329 17.5322C312.333 27.5322 273.9 47.5322 253.5 47.5322C228 47.5322 221 75.5322 209 61.5322C199.4 50.3322 186.667 33.1989 181.5 26.0322C176.167 24.1989 162.8 22.4322 152 30.0322C138.5 39.5322 121 44.5322 97 39.5322C73 34.5322 36.5 21.0314 28 23.5318C21.2 25.5321 14 13 5 18.5L0 23.0352V0.0318149H329H892.088C893.196 -0.00979363 894.333 -0.0114086 895.5 0.0318149H2827.5H3000V23.0322C2997 26.1989 2989.9 32.5322 2983.5 32.5322C2975.5 32.5322 2973.5 37.5322 2964 44.0322C2954.5 50.5322 2951 44.0322 2929 37.5322C2907 31.0322 2893 54 2871.5 58.0322C2854.3 61.258 2835 63.3763 2827.5 64.0322L2817.5 58.0322L2791.5 44.0322C2783.17 41.8656 2762.1 37.5322 2744.5 37.5322C2722.5 37.5322 2694 47.0322 2677 47.0322C2660 47.0322 2643 37.5322 2636 37.5322C2629 37.5322 2620 37.5322 2613.5 32.5322C2607 27.5322 2606.5 25.5322 2602 25.5322C2597.5 25.5322 2594 19.5322 2583.5 19.0322C2573 18.5322 2572.5 23.0322 2570 23.0322C2567.5 23.0322 2565.5 30.5322 2553 32.5322C2540.5 34.5322 2524.5 37.5322 2517.5 44.0322C2510.5 50.5322 2474.5 47.0322 2464 47.0322C2453.5 47.0322 2444.5 44.0322 2435.5 37.5322C2426.5 31.0322 2367 19.0322 2356.5 17.0322C2346 15.0322 2303 2.53223 2294 4.53223C2285 6.53223 2265 7.53223 2241.5 9.53223C2218 11.5322 2194.5 20.0322 2183 23.0322C2171.5 26.0322 2159.5 23.0322 2143 27.5322C2126.5 32.0322 2057 31.0322 2046.5 27.5322C2036 24.0322 2020 26.0322 2015 25.5322C2010 25.0322 1969 17.0322 1953.5 12.5322C1938 8.03223 1915.5 17.5322 1898 33.5322C1880.5 49.5322 1858.5 54.0322 1846.5 54.5322C1834.5 55.0322 1674.5 21.0322 1649 14.5322C1623.5 8.03223 1623.5 17.0322 1617 18.0322C1610.5 19.0322 1595 12.5322 1586 11.0322C1577 9.53223 1561 -0.967773 1538.5 14.5322C1516 30.0322 1505.5 31.5322 1499.5 31.5322C1493.5 31.5322 1480 32.5322 1472 33.5322C1464 34.5322 1428.5 30.0322 1416 34.5322C1403.53 39.0211 1392.55 32.5642 1384.06 27.5693L1384 27.5322C1375.5 22.5322 1366.5 26.0322 1363.5 29.0322C1360.53 32.0062 1358.04 31.5406 1350.21 30.071L1350 30.0322C1342 28.5322 1334.5 26.0322 1332.5 26.0322C1330.5 26.0322 1328 31.5322 1315.5 31.5322C1303 31.5322 1298.5 39.5322 1292.5 47.5322C1286.5 55.5322 1265 64.0322 1258.5 64.0322C1252 64.0322 1240.5 58.0322 1237.5 58.0322C1234.5 58.0322 1229.5 61.0322 1224.5 61.5322C1219.5 62.0322 1210.5 61.5322 1202 64.0322C1193.5 66.5322 1191.5 64.5322 1176 64.0322C1160.5 63.5322 1129.5 44.0322 1125.5 39.5322C1121.5 35.0322 1113.5 31.5322 1109 31.5322C1104.5 31.5322 1092 31.0322 1084 26.0322C1076 21.0322 1055 19.5322 1043.5 19.0322C1032 18.5322 994 9.0322 981.5 6.53223C969 4.03225 942 2.03223 929.5 3.53223C917 5.03223 909 0.531815 895.5 0.0318149H892.088C880.485 0.467453 872.052 5.28717 865.678 8.93037L865.5 9.0322C858.5 13.0326 837.5 23.5318 824.5 22.0318C811.5 20.5318 818 21.0318 789 23.5318C761.5 31.5314 747.5 15.5322 738 9.0322C728.5 2.5322 713.5 0.0322018 689.5 13.5322C665.5 27.0322 647.5 29.0322 641 28.5322C634.5 28.0322 567 13.5322 563 13.5322Z"
    fill="#F4F1E5"/>
</svg>
